<?xml version="1.0" encoding="UTF-8" standalone="no"?>
<!DOCTYPE svg PUBLIC "-//W3C//DTD SVG 1.1//EN" "http://www.w3.org/Graphics/SVG/1.1/DTD/svg11.dtd">
<svg width="100px" height="100px" version="1.1" xmlns="http://www.w3.org/2000/svg" xmlns:xlink="http://www.w3.org/1999/xlink" xml:space="preserve" xmlns:serif="http://www.serif.com/" style="fill-rule:evenodd;clip-rule:evenodd;stroke-linejoin:round;stroke-miterlimit:2;">
    <g transform="matrix(1,0,0,1,-330,0)">
        <g id="facebook" transform="matrix(1,0,0,1,70,0)">
            <rect x="260" y="0" width="100" height="100" style="fill:none;"/>
            <g transform="matrix(1,0,0,1,260,0)">
                <path d="M100,50C100,22.386 77.614,0 50,0C22.386,0 0,22.386 0,50C0,74.956 18.284,95.642 42.188,99.393L42.188,64.453L29.492,64.453L29.492,50L42.188,50L42.188,38.984C42.188,26.453 49.652,19.531 61.073,19.531C66.542,19.531 72.266,20.508 72.266,20.508L72.266,32.813L65.961,32.813C59.75,32.813 57.813,36.667 57.813,40.625L57.813,50L71.68,50L69.463,64.453L57.813,64.453L57.813,99.393C81.716,95.642 100,74.956 100,50Z" style="fill-rule:nonzero;"/>
            </g>
        </g>
    </g>
</svg>
