<?xml version="1.0" encoding="UTF-8" standalone="no"?>
<!DOCTYPE svg PUBLIC "-//W3C//DTD SVG 1.1//EN" "http://www.w3.org/Graphics/SVG/1.1/DTD/svg11.dtd">
<svg width="100px" height="100px" version="1.1" xmlns="http://www.w3.org/2000/svg" xmlns:xlink="http://www.w3.org/1999/xlink" xml:space="preserve" xmlns:serif="http://www.serif.com/" style="fill-rule:evenodd;clip-rule:evenodd;stroke-linejoin:round;stroke-miterlimit:2;">
    <g transform="matrix(1,0,0,1,-440,0)">
        <g id="instagram" transform="matrix(1,0,0,1,180,0)">
            <rect x="260" y="0" width="100" height="100" style="fill:none;"/>
            <g transform="matrix(1,0,0,1,260,0)">
                <path d="M50,0C36.426,0 34.727,0.059 29.395,0.293C24.082,0.527 20.43,1.387 17.266,2.617C13.965,3.906 11.172,5.605 8.398,8.398C5.605,11.172 3.906,13.965 2.617,17.246C1.387,20.43 0.527,24.063 0.293,29.375C0.059,34.727 0,36.426 0,50C0,63.574 0.059,65.273 0.293,70.606C0.527,75.918 1.387,79.57 2.617,82.734C3.906,86.035 5.605,88.828 8.398,91.602C11.172,94.375 13.965,96.094 17.246,97.363C20.43,98.594 24.063,99.453 29.375,99.688C34.707,99.922 36.406,99.981 49.981,99.981C63.555,99.981 65.254,99.922 70.586,99.688C75.898,99.453 79.551,98.594 82.715,97.363C85.996,96.094 88.789,94.375 91.563,91.602C94.336,88.828 96.055,86.035 97.324,82.754C98.555,79.57 99.414,75.938 99.648,70.625C99.883,65.293 99.941,63.594 99.941,50.02C99.941,36.445 99.883,34.746 99.648,29.414C99.414,24.102 98.555,20.449 97.324,17.285C96.094,13.965 94.394,11.172 91.602,8.398C88.828,5.625 86.035,3.906 82.754,2.637C79.57,1.406 75.938,0.547 70.625,0.313C65.273,0.059 63.574,0 50,0ZM50,9.004C63.359,9.004 64.941,9.063 70.195,9.297C75.078,9.512 77.715,10.332 79.473,11.016C81.797,11.914 83.477,13.008 85.215,14.746C86.973,16.504 88.047,18.164 88.945,20.488C89.629,22.246 90.449,24.902 90.664,29.766C90.898,35.039 90.957,36.621 90.957,49.961C90.957,63.32 90.898,64.902 90.664,70.156C90.449,75.039 89.629,77.676 88.945,79.434C88.047,81.758 86.953,83.438 85.215,85.176C83.457,86.934 81.797,88.008 79.473,88.906C77.715,89.59 75.059,90.41 70.195,90.625C64.922,90.859 63.34,90.918 50,90.918C36.641,90.918 35.059,90.859 29.805,90.625C24.922,90.41 22.285,89.59 20.527,88.906C18.203,88.008 16.523,86.914 14.785,85.176C13.027,83.418 11.953,81.758 11.055,79.434C10.371,77.676 9.551,75.019 9.336,70.156C9.102,64.883 9.043,63.301 9.043,49.961C9.043,36.602 9.102,35.02 9.336,29.766C9.551,24.883 10.371,22.246 11.055,20.488C11.953,18.164 13.047,16.484 14.785,14.746C16.543,12.988 18.203,11.914 20.527,11.016C22.285,10.332 24.941,9.512 29.805,9.297C35.059,9.063 36.641,9.004 50,9.004ZM50,24.316C35.82,24.316 24.316,35.82 24.316,50C24.316,64.18 35.82,75.684 50,75.684C64.18,75.684 75.684,64.18 75.684,50C75.684,35.82 64.18,24.316 50,24.316ZM50,66.66C40.801,66.66 33.34,59.199 33.34,50C33.34,40.801 40.801,33.34 50,33.34C59.199,33.34 66.66,40.801 66.66,50C66.66,59.199 59.199,66.66 50,66.66ZM82.695,23.301C82.695,26.621 80,29.297 76.699,29.297C73.379,29.297 70.703,26.601 70.703,23.301C70.703,19.98 73.398,17.305 76.699,17.305C80,17.305 82.695,20 82.695,23.301Z" style="fill-rule:nonzero;"/>
            </g>
        </g>
    </g>
</svg>
