<?xml version="1.0" encoding="UTF-8" standalone="no"?>
<!DOCTYPE svg PUBLIC "-//W3C//DTD SVG 1.1//EN" "http://www.w3.org/Graphics/SVG/1.1/DTD/svg11.dtd">
<svg width="100%" height="100%" viewBox="0 0 100 100" version="1.1" xmlns="http://www.w3.org/2000/svg" xmlns:xlink="http://www.w3.org/1999/xlink" xml:space="preserve" xmlns:serif="http://www.serif.com/" style="fill-rule:evenodd;clip-rule:evenodd;stroke-linejoin:round;stroke-miterlimit:2;">
    <g transform="matrix(1,0,0,1,-550,-770)">
        <g id="message-error" transform="matrix(0.125,0,0,0.166667,550,770)">
            <rect x="0" y="0" width="800" height="600" style="fill:none;"/>
            <clipPath id="_clip1">
                <rect x="0" y="0" width="800" height="600"/>
            </clipPath>
            <g clip-path="url(#_clip1)">
                <g transform="matrix(8,0,0,6,-4400,-4620)">
                    <path d="M593.468,770.432C591.332,770.711 589.192,771.133 587.059,771.704C576.058,774.652 566.874,781.141 560.404,789.617C553.891,798.061 550,808.612 550,820C550,822.208 550.146,824.385 550.43,826.52C550.709,828.663 551.132,830.806 551.704,832.941C554.653,843.948 561.148,853.137 569.634,859.61C578.075,866.115 588.619,870 600,870C602.204,870 604.377,869.854 606.508,869.572C608.641,869.294 610.78,868.874 612.913,868.304L617.112,867.179C617.592,867.05 618.009,866.802 618.34,866.475C634.412,860.057 646.49,845.492 649.351,827.996C649.363,827.944 649.373,827.89 649.382,827.836C649.692,825.883 649.885,823.917 649.961,821.949L649.982,821.312L649.999,820.27L649.999,820.029L649.999,815.682C649.999,815.219 649.886,814.783 649.685,814.399C649.406,811.927 648.943,809.474 648.296,807.059C644.334,792.273 633.973,780.768 620.984,774.721C620.795,774.566 620.583,774.433 620.35,774.329C613.945,771.475 607.011,770.001 600,770.001C597.789,770.001 595.61,770.147 593.468,770.432ZM644.455,820.24C644.476,816.284 643.969,812.334 642.941,808.494C637.137,786.834 615.889,773.093 594.191,775.928C582.298,777.509 571.826,783.868 564.794,792.986C557.806,802.141 554.374,813.901 555.926,825.797C557.505,837.701 563.871,848.183 573.001,855.218C582.149,862.196 593.899,865.623 605.787,864.075C626.921,861.277 643.574,843.39 644.422,821.733L644.447,820.876L644.455,820.24ZM596.078,820.011L579.579,803.529L579.597,803.51L576.792,800.702C575.711,799.62 575.711,797.863 576.794,796.782C577.876,795.701 579.633,795.702 580.714,796.784L600,816.089L619.286,796.784C620.367,795.702 622.124,795.701 623.206,796.782C624.289,797.863 624.289,799.62 623.208,800.702L620.403,803.51L620.421,803.529L603.922,820.011L623.226,839.296C624.308,840.377 624.309,842.134 623.228,843.216C622.146,844.298 620.39,844.299 619.308,843.218L616.499,840.412L616.481,840.431L600,823.933L583.519,840.431L583.501,840.412L580.692,843.218C579.61,844.299 577.854,844.298 576.772,843.216C575.691,842.134 575.692,840.377 576.774,839.296L596.078,820.011Z"/>
                </g>
            </g>
        </g>
    </g>
</svg>
