<?xml version="1.0" encoding="UTF-8" standalone="no"?>
<!DOCTYPE svg PUBLIC "-//W3C//DTD SVG 1.1//EN" "http://www.w3.org/Graphics/SVG/1.1/DTD/svg11.dtd">
<svg width="100%" height="100%" viewBox="0 0 100 100" version="1.1" xmlns="http://www.w3.org/2000/svg" xmlns:xlink="http://www.w3.org/1999/xlink" xml:space="preserve" xmlns:serif="http://www.serif.com/" style="fill-rule:evenodd;clip-rule:evenodd;stroke-linejoin:round;stroke-miterlimit:2;">
    <g transform="matrix(1,0,0,1,-440,-770)">
        <g id="message-success" transform="matrix(0.125,0,0,0.166667,440,770)">
            <rect x="0" y="0" width="800" height="600" style="fill:none;"/>
            <clipPath id="_clip1">
                <rect x="0" y="0" width="800" height="600"/>
            </clipPath>
            <g clip-path="url(#_clip1)">
                <g transform="matrix(8,0,0,6,-3520,-4620)">
                    <path d="M534.455,815.682L534.455,820.026C534.441,844.404 514.378,864.456 490,864.456C465.612,864.456 445.544,844.388 445.544,820C445.544,795.613 465.612,775.545 490,775.545C496.234,775.545 502.399,776.856 508.093,779.393C509.491,780.016 511.131,779.387 511.754,777.989C512.376,776.592 511.747,774.952 510.35,774.329C503.945,771.475 497.011,770.001 490,770.001C462.571,770.001 440,792.571 440,820C440,847.429 462.571,870 490,870C517.418,870 539.984,847.447 539.999,820.029L539.999,815.682C539.999,814.152 538.757,812.91 537.227,812.91C535.698,812.91 534.455,814.152 534.455,815.682ZM535.268,780.286L490,825.599C490,825.599 477.793,813.392 477.793,813.392C476.711,812.31 474.954,812.31 473.873,813.392C472.791,814.473 472.791,816.23 473.873,817.312L488.041,831.48C488.561,832 489.266,832.292 490.002,832.292C490.737,832.292 491.442,831.999 491.962,831.479L539.19,784.205C540.271,783.122 540.27,781.366 539.188,780.284C538.105,779.203 536.349,779.204 535.268,780.286Z"/>
                </g>
            </g>
        </g>
    </g>
</svg>
