<?xml version="1.0" encoding="UTF-8" standalone="no"?>
<!DOCTYPE svg PUBLIC "-//W3C//DTD SVG 1.1//EN" "http://www.w3.org/Graphics/SVG/1.1/DTD/svg11.dtd">
<svg width="100px" height="100px" version="1.1" xmlns="http://www.w3.org/2000/svg" xmlns:xlink="http://www.w3.org/1999/xlink" xml:space="preserve" xmlns:serif="http://www.serif.com/" style="fill-rule:evenodd;clip-rule:evenodd;stroke-linejoin:round;stroke-miterlimit:2;">
    <g transform="matrix(1,0,0,1,-220,0)">
        <g id="tiktok" transform="matrix(1,0,0,1,-40,0)">
            <rect x="260" y="0" width="100" height="100" style="fill:none;"/>
            <g transform="matrix(0.195332,0,0,0.195332,266.246,0)">
                <path d="M448,209.9C403.966,209.994 360.997,196.243 325.2,170.6L325.2,349.4C325.172,438.581 251.781,511.95 162.6,511.95C73.4,511.95 0,438.549 0,349.35C0,260.15 73.4,186.75 162.6,186.75C170.093,186.75 177.578,187.268 185,188.3L185,278.2C177.752,275.918 170.198,274.758 162.6,274.758C121.676,274.758 88,308.433 88,349.358C88,390.282 121.676,423.958 162.6,423.958C203.508,423.958 237.177,390.308 237.2,349.4L237.2,0L325.2,0C325.15,7.443 325.786,14.874 327.1,22.2C333.282,55.189 352.79,84.215 381,102.4C400.875,115.527 424.181,122.519 448,122.5L448,209.9Z" style="fill-rule:nonzero;"/>
            </g>
        </g>
    </g>
</svg>
